<?xml version="1.0" standalone="no"?>
<svg  viewBox="0 0 200 200" xmlns="http://www.w3.org/2000/svg">
  <path fill="#fff" d="M41.2,-59.6C52.8,-56.7,61.1,-44.2,69.4,-30.4C77.8,-16.6,86.2,-1.5,82.1,10.2C78,22,61.3,30.3,48.1,36.8C34.9,43.2,25.1,47.9,16,47.2C6.9,46.5,-1.7,40.6,-10.3,37.2C-19,33.7,-27.9,32.8,-30.6,27.6C-33.3,22.5,-29.9,13.1,-32.8,3.7C-35.7,-5.7,-45,-15.3,-47,-25.8C-49,-36.4,-43.6,-48,-34.6,-52C-25.5,-56.1,-12.8,-52.6,1,-54.2C14.8,-55.8,29.7,-62.5,41.2,-59.6Z" transform="translate(100 100)" />
</svg>